<svg width="13" height="14" viewBox="0 0 13 14" fill="none" xmlns="http://www.w3.org/2000/svg">
<path d="M11.416 12.5C11.8223 12.5 12.166 12.8438 12.166 13.25C12.166 13.6875 11.8223 14 11.416 14H0.916016C0.478516 14 0.166016 13.6875 0.166016 13.25C0.166016 12.8125 0.478516 12.5 0.916016 12.5H11.416ZM9.60352 5.5C9.88477 5.1875 10.3535 5.1875 10.666 5.46875C10.9785 5.75 10.9785 6.21875 10.6973 6.53125L6.69727 10.7812C6.41602 11.0938 5.88477 11.0938 5.60352 10.7812L1.60352 6.53125C1.32227 6.21875 1.32227 5.75 1.63477 5.46875C1.79102 5.34375 1.97852 5.28125 2.16602 5.28125C2.35352 5.28125 2.54102 5.34375 2.69727 5.5L5.41602 8.375V0.78125C5.41602 0.34375 5.72852 0 6.16602 0C6.57227 0 6.91602 0.34375 6.91602 0.78125V8.375L9.60352 5.5Z" fill="white"/>
</svg>
