<svg width="24" height="24" viewBox="0 0 24 24" fill="none" xmlns="http://www.w3.org/2000/svg">
<g clip-path="url(#clip0_14730_58237)">
<path d="M24 12.0012C24 5.37383 18.6274 0.00124741 12 0.00124741C5.37258 0.00124741 0 5.37383 0 12.0012C0 17.9908 4.38823 22.9552 10.125 23.8555V15.47H7.07813V12.0012H10.125V9.3575C10.125 6.35 11.9165 4.68875 14.6576 4.68875C15.9705 4.68875 17.3438 4.92312 17.3438 4.92312V7.87625H15.8306C14.3399 7.87625 13.875 8.80126 13.875 9.75024V12.0012H17.2031L16.6711 15.47H13.875V23.8555C19.6118 22.9552 24 17.9908 24 12.0012Z" fill="white"/>
</g>
<defs>
<clipPath id="clip0_14730_58237">
<rect width="24" height="24" fill="white"/>
</clipPath>
</defs>
</svg>
