<svg width="24" height="24" viewBox="0 0 24 24" fill="none" xmlns="http://www.w3.org/2000/svg">
<g clip-path="url(#clip0_14730_58246)">
<path d="M20.4223 20.221H16.871V14.7141C16.871 13.401 16.8473 11.7105 15.0239 11.7105C13.1742 11.7105 12.8912 13.1413 12.8912 14.6185V20.2206H9.33977V8.89631H12.7491V10.4439H12.7968C13.138 9.86627 13.6311 9.39109 14.2234 9.06896C14.8158 8.74683 15.4853 8.58981 16.1607 8.61463C19.7602 8.61463 20.4238 10.9589 20.4238 14.0087L20.4223 20.221ZM5.33263 7.34836C4.92502 7.34843 4.52653 7.22882 4.18757 7.00466C3.84862 6.78049 3.58443 6.46184 3.42837 6.08899C3.27232 5.71614 3.23142 5.30585 3.31087 4.90999C3.39032 4.51414 3.58654 4.1505 3.87472 3.86506C4.16289 3.57963 4.53008 3.38521 4.92984 3.3064C5.3296 3.22759 5.74399 3.26793 6.1206 3.42231C6.49721 3.5767 6.81912 3.83819 7.04564 4.17373C7.27216 4.50926 7.39311 4.90378 7.39318 5.30737C7.39323 5.57535 7.33996 5.84071 7.23644 6.08831C7.13291 6.33591 6.98116 6.56089 6.78982 6.75042C6.59848 6.93994 6.3713 7.09029 6.12127 7.19288C5.87125 7.29548 5.60327 7.34831 5.33263 7.34836ZM7.10832 20.221H3.55323V8.89631H7.10832V20.221ZM22.1929 0.00161688H1.76867C1.3051 -0.003563 0.858392 0.1737 0.526749 0.494452C0.195106 0.815205 0.00565764 1.2532 0 1.71221V22.0191C0.005464 22.4784 0.194801 22.9167 0.526433 23.2377C0.858064 23.5588 1.30487 23.7364 1.76867 23.7316H22.1929C22.6576 23.7373 23.1056 23.5602 23.4386 23.2391C23.7715 22.9181 23.9621 22.4793 23.9686 22.0191V1.71074C23.9619 1.25083 23.7712 0.812331 23.4382 0.491586C23.1053 0.170842 22.6574 -0.00591456 22.1929 0.000151113" fill="white"/>
</g>
<defs>
<clipPath id="clip0_14730_58246">
<rect width="24" height="23.8108" fill="white"/>
</clipPath>
</defs>
</svg>
