<svg width="100" height="25" viewBox="0 0 100 25" fill="none" xmlns="http://www.w3.org/2000/svg">
<path d="M44.974 0.21875L41.9923 8.39708L36.2377 0.21875H25.6826L36.4266 14.7293H39.6468L36.2079 24.1185H46.1965L53.8494 0.21875H44.974Z" fill="white"/>
<path d="M88.7041 6.15631V9.50108H97.2217V14.5232H88.7041V17.2923H98.9411V24.2201H82.3134L76.2705 0.320312H96.4564H99.8555L98.9411 6.15631H88.7041Z" fill="white"/>
<path d="M65.538 16.4762L76.4509 6.24332L74.9402 0.21875H55.2512L53.1541 7.10681H62.9439L48.5127 20.7043L47.6182 24.1185H80.9333L79.204 16.4762H65.538Z" fill="white"/>
<path fill-rule="evenodd" clip-rule="evenodd" d="M33.6133 24.1185H18.2776L13.0597 17.4985H11.6583V24.1185H4.20415L0 21.4983V0.21875H24.0422L30.6317 8.74446V14.0346L26.9046 15.2157L33.6133 24.1185ZM17.2837 6.78921H11.2608V10.392L17.2837 11.0173V6.78921Z" fill="white"/>
</svg>
